<?xml version="1.0" encoding="UTF-8" standalone="no"?>
<!-- Created with Inkscape (http://www.inkscape.org/) -->

<svg
   xmlns:dc="http://purl.org/dc/elements/1.1/"
   xmlns:cc="http://creativecommons.org/ns#"
   xmlns:rdf="http://www.w3.org/1999/02/22-rdf-syntax-ns#"
   xmlns:svg="http://www.w3.org/2000/svg"
   xmlns="http://www.w3.org/2000/svg"
   xmlns:xlink="http://www.w3.org/1999/xlink"
   xmlns:sodipodi="http://sodipodi.sourceforge.net/DTD/sodipodi-0.dtd"
   xmlns:inkscape="http://www.inkscape.org/namespaces/inkscape"
   width="512"
   height="512"
   id="svg3081"
   version="1.1"
   inkscape:version="0.48.3.1 r9886"
   sodipodi:docname="sistemidinumerazione.svg"
   inkscape:export-filename="/home/antonio/Documenti/Programmazione/Sistemi di numerazione/src/SistemiDiNumerazione/img/16/binary.png"
   inkscape:export-xdpi="2.8099999"
   inkscape:export-ydpi="2.8099999">
  <defs
     id="defs3083">
    <linearGradient
       inkscape:collect="always"
       xlink:href="#linearGradient3841"
       id="linearGradient3029"
       gradientUnits="userSpaceOnUse"
       x1="254.55844"
       y1="1032.1592"
       x2="254.55844"
       y2="561.42804"
       gradientTransform="translate(0,-540.36218)" />
    <linearGradient
       id="linearGradient3841">
      <stop
         id="stop3843"
         style="stop-color:#808080;stop-opacity:1"
         offset="0" />
      <stop
         id="stop3849"
         style="stop-color:#c8c8c8;stop-opacity:1"
         offset="0.5" />
      <stop
         id="stop3845"
         style="stop-color:#ffffff;stop-opacity:1"
         offset="1" />
    </linearGradient>
    <linearGradient
       y2="561.42804"
       x2="254.55844"
       y1="1032.1592"
       x1="254.55844"
       gradientTransform="translate(-0.09899144,0.70306516)"
       gradientUnits="userSpaceOnUse"
       id="linearGradient3105"
       xlink:href="#linearGradient3841"
       inkscape:collect="always" />
    <linearGradient
       inkscape:collect="always"
       xlink:href="#linearGradient3841-7"
       id="linearGradient3026"
       gradientUnits="userSpaceOnUse"
       gradientTransform="matrix(1,0,0,1.0138688,0,-3.5564031)"
       x1="254.55844"
       y1="37.922848"
       x2="254.55844"
       y2="474.93994" />
    <linearGradient
       id="linearGradient3841-7">
      <stop
         id="stop3843-2"
         style="stop-color:#808080;stop-opacity:1"
         offset="0" />
      <stop
         id="stop3849-4"
         style="stop-color:#c8c8c8;stop-opacity:1"
         offset="0.5" />
      <stop
         id="stop3845-8"
         style="stop-color:#ffffff;stop-opacity:1"
         offset="1" />
    </linearGradient>
    <linearGradient
       y2="474.93994"
       x2="254.55844"
       y1="37.922848"
       x1="254.55844"
       gradientTransform="matrix(1,0,0,1.0138688,-0.06208181,536.83539)"
       gradientUnits="userSpaceOnUse"
       id="linearGradient3142"
       xlink:href="#linearGradient3841-7"
       inkscape:collect="always" />
  </defs>
  <sodipodi:namedview
     id="base"
     pagecolor="#ffffff"
     bordercolor="#666666"
     borderopacity="1.0"
     inkscape:pageopacity="0.0"
     inkscape:pageshadow="2"
     inkscape:zoom="0.98994949"
     inkscape:cx="219.62808"
     inkscape:cy="259.21454"
     inkscape:document-units="px"
     inkscape:current-layer="layer1"
     showgrid="false"
     inkscape:window-width="909"
     inkscape:window-height="811"
     inkscape:window-x="263"
     inkscape:window-y="148"
     inkscape:window-maximized="0" />
  <metadata
     id="metadata3086">
    <rdf:RDF>
      <cc:Work
         rdf:about="">
        <dc:format>image/svg+xml</dc:format>
        <dc:type
           rdf:resource="http://purl.org/dc/dcmitype/StillImage" />
        <dc:title></dc:title>
      </cc:Work>
    </rdf:RDF>
  </metadata>
  <g
     inkscape:label="Livello 1"
     inkscape:groupmode="layer"
     id="layer1"
     transform="translate(0,-540.36218)">
    <rect
       style="fill:url(#linearGradient3105);fill-opacity:1;fill-rule:nonzero;stroke:#404040;stroke-width:5;stroke-miterlimit:4;stroke-opacity:1;stroke-dasharray:none"
       id="rect3831"
       y="562.1311"
       x="59.5"
       ry="50"
       rx="50"
       height="470.73108"
       width="389.91888" />
    <rect
       style="fill:url(#linearGradient3142);fill-opacity:1;fill-rule:nonzero;stroke:none"
       id="rect3859"
       y="575.28418"
       x="73.5"
       ry="47.062752"
       rx="46.418976"
       height="443.078"
       width="361.99271" />
    <g
       style="font-size:40px;font-style:normal;font-weight:normal;line-height:125%;letter-spacing:0px;word-spacing:0px;fill:#000000;fill-opacity:1;stroke:none;font-family:Sans"
       id="flowRoot3871"
       transform="matrix(29.583963,0,0,29.583963,-7381.9371,-2028.4601)">
      <path
         inkscape:connector-curvature="0"
         style="font-size:3.31807351px;font-variant:normal;font-weight:500;font-stretch:normal;text-align:center;text-anchor:middle;font-family:Bandal;-inkscape-font-specification:Bandal Medium"
         id="path3005"
         d="m 252.98163,90.763081 0.55301,0 0,-0.276506 0.27651,0 0,1.659037 0.55301,0 0,0.276506 -1.38253,0 0,-0.276506 0.55301,0 0,-1.106025 -0.55301,0 0,-0.276506" />
      <path
         inkscape:connector-curvature="0"
         style="font-size:3.31807351px;font-variant:normal;font-weight:500;font-stretch:normal;text-align:center;text-anchor:middle;font-family:Bandal;-inkscape-font-specification:Bandal Medium"
         id="path3007"
         d="m 256.29754,92.06819 0,0.07742 0.82952,0 0,-0.90694 -0.82952,0.829518 m -0.27651,-1.581615 1.38253,0 0,1.935543 -1.38253,0 0,-1.935543 m 0.27651,0.276506 0,0.90694 0.82952,-0.829518 0,-0.07742 -0.82952,0" />
      <path
         inkscape:connector-curvature="0"
         style="font-size:3.31807351px;font-variant:normal;font-weight:500;font-stretch:normal;text-align:center;text-anchor:middle;font-family:Bandal;-inkscape-font-specification:Bandal Medium"
         id="path3009"
         d="m 259.06044,90.763081 0.55301,0 0,-0.276506 0.27651,0 0,1.659037 0.55301,0 0,0.276506 -1.38253,0 0,-0.276506 0.55301,0 0,-1.106025 -0.55301,0 0,-0.276506" />
      <path
         inkscape:connector-curvature="0"
         style="font-size:3.31807351px;font-variant:normal;font-weight:500;font-stretch:normal;text-align:center;text-anchor:middle;font-family:Bandal;-inkscape-font-specification:Bandal Medium"
         id="path3011"
         d="m 262.09985,90.763081 0.55301,0 0,-0.276506 0.27651,0 0,1.659037 0.55301,0 0,0.276506 -1.38253,0 0,-0.276506 0.55301,0 0,-1.106025 -0.55301,0 0,-0.276506" />
      <path
         inkscape:connector-curvature="0"
         style="font-size:3.31807351px;font-variant:normal;font-weight:500;font-stretch:normal;text-align:center;text-anchor:middle;font-family:Bandal;-inkscape-font-specification:Bandal Medium"
         id="path3013"
         d="m 252.98163,94.910672 0.55301,0 0,-0.276506 0.27651,0 0,1.659037 0.55301,0 0,0.276506 -1.38253,0 0,-0.276506 0.55301,0 0,-1.106025 -0.55301,0 0,-0.276506" />
      <path
         inkscape:connector-curvature="0"
         style="font-size:3.31807351px;font-variant:normal;font-weight:500;font-stretch:normal;text-align:center;text-anchor:middle;font-family:Bandal;-inkscape-font-specification:Bandal Medium"
         id="path3015"
         d="m 256.02103,94.910672 0.55302,0 0,-0.276506 0.2765,0 0,1.659037 0.55301,0 0,0.276506 -1.38253,0 0,-0.276506 0.55302,0 0,-1.106025 -0.55302,0 0,-0.276506" />
      <path
         inkscape:connector-curvature="0"
         style="font-size:3.31807351px;font-variant:normal;font-weight:500;font-stretch:normal;text-align:center;text-anchor:middle;font-family:Bandal;-inkscape-font-specification:Bandal Medium"
         id="path3017"
         d="m 259.33695,96.215781 0,0.07742 0.82952,0 0,-0.906941 -0.82952,0.829519 m -0.27651,-1.581615 1.38253,0 0,1.935543 -1.38253,0 0,-1.935543 m 0.27651,0.276506 0,0.90694 0.82952,-0.829518 0,-0.07742 -0.82952,0" />
      <path
         inkscape:connector-curvature="0"
         style="font-size:3.31807351px;font-variant:normal;font-weight:500;font-stretch:normal;text-align:center;text-anchor:middle;font-family:Bandal;-inkscape-font-specification:Bandal Medium"
         id="path3019"
         d="m 262.37635,96.215781 0,0.07742 0.82952,0 0,-0.906941 -0.82952,0.829519 m -0.2765,-1.581615 1.38253,0 0,1.935543 -1.38253,0 0,-1.935543 m 0.2765,0.276506 0,0.90694 0.82952,-0.829518 0,-0.07742 -0.82952,0" />
      <path
         inkscape:connector-curvature="0"
         style="font-size:3.31807351px;font-variant:normal;font-weight:500;font-stretch:normal;text-align:center;text-anchor:middle;font-family:Bandal;-inkscape-font-specification:Bandal Medium"
         id="path3021"
         d="m 253.25813,100.36337 0,0.0774 0.82952,0 0,-0.906937 -0.82952,0.829517 m -0.2765,-1.581614 1.38253,0 0,1.935544 -1.38253,0 0,-1.935544 m 0.2765,0.276507 0,0.90694 0.82952,-0.829519 0,-0.07742 -0.82952,0" />
      <path
         inkscape:connector-curvature="0"
         style="font-size:3.31807351px;font-variant:normal;font-weight:500;font-stretch:normal;text-align:center;text-anchor:middle;font-family:Bandal;-inkscape-font-specification:Bandal Medium"
         id="path3023"
         d="m 256.02103,99.058263 0.55302,0 0,-0.276507 0.2765,0 0,1.659034 0.55301,0 0,0.27651 -1.38253,0 0,-0.27651 0.55302,0 0,-1.106021 -0.55302,0 0,-0.276506" />
      <path
         inkscape:connector-curvature="0"
         style="font-size:3.31807351px;font-variant:normal;font-weight:500;font-stretch:normal;text-align:center;text-anchor:middle;font-family:Bandal;-inkscape-font-specification:Bandal Medium"
         id="path3025"
         d="m 259.33695,100.36337 0,0.0774 0.82952,0 0,-0.906937 -0.82952,0.829517 m -0.27651,-1.581614 1.38253,0 0,1.935544 -1.38253,0 0,-1.935544 m 0.27651,0.276507 0,0.90694 0.82952,-0.829519 0,-0.07742 -0.82952,0" />
      <path
         inkscape:connector-curvature="0"
         style="font-size:3.31807351px;font-variant:normal;font-weight:500;font-stretch:normal;text-align:center;text-anchor:middle;font-family:Bandal;-inkscape-font-specification:Bandal Medium"
         id="path3027"
         d="m 262.37635,100.36337 0,0.0774 0.82952,0 0,-0.906937 -0.82952,0.829517 m -0.2765,-1.581614 1.38253,0 0,1.935544 -1.38253,0 0,-1.935544 m 0.2765,0.276507 0,0.90694 0.82952,-0.829519 0,-0.07742 -0.82952,0" />
    </g>
  </g>
</svg>
